<svg xmlns="http://www.w3.org/2000/svg" viewBox="0 0 1600 800" role="img" aria-label="Placeholder hero background">
  <defs>
    <linearGradient id="bg" x1="0%" y1="0%" x2="100%" y2="100%">
      <stop offset="0%" stop-color="#e8f2ff" />
      <stop offset="100%" stop-color="#f8fbff" />
    </linearGradient>
    <linearGradient id="orb" x1="0%" y1="0%" x2="100%" y2="100%">
      <stop offset="0%" stop-color="#1769e0" />
      <stop offset="100%" stop-color="#7dc6ff" />
    </linearGradient>
  </defs>
  <rect width="1600" height="800" fill="url(#bg)" />
  <circle cx="240" cy="130" r="180" fill="#ffffff" opacity="0.5" />
  <circle cx="1360" cy="120" r="220" fill="#ffffff" opacity="0.35" />
  <circle cx="1250" cy="630" r="210" fill="url(#orb)" opacity="0.12" />
  <circle cx="320" cy="610" r="240" fill="url(#orb)" opacity="0.09" />
  <path d="M0 630 C220 520, 420 710, 650 620 C910 520, 1080 710, 1320 610 C1460 560, 1540 600, 1600 640 L1600 800 L0 800 Z" fill="#ffffff" opacity="0.75" />
  <g opacity="0.24">
    <rect x="760" y="190" width="240" height="140" rx="18" fill="#1769e0" />
    <rect x="790" y="225" width="180" height="10" rx="5" fill="#ffffff" />
    <rect x="790" y="247" width="140" height="10" rx="5" fill="#ffffff" />
    <rect x="790" y="270" width="165" height="10" rx="5" fill="#ffffff" />
  </g>
</svg>
