<svg xmlns="http://www.w3.org/2000/svg" viewBox="0 0 1200 675" role="img" aria-label="Placeholder examples gallery snapshot">
  <rect width="1200" height="675" fill="#eef4ff" />
  <rect x="56" y="56" width="1088" height="563" rx="26" fill="#ffffff" stroke="#d8deea" stroke-width="2" />

  <rect x="96" y="106" width="1008" height="38" rx="10" fill="#f6f9ff" />
  <rect x="118" y="120" width="260" height="10" rx="5" fill="#9fbdea" />

  <g transform="translate(96,176)">
    <rect width="312" height="200" rx="14" fill="#f7fbff" stroke="#d8deea" />
    <rect x="20" y="20" width="272" height="100" rx="10" fill="#dbe9ff" />
    <rect x="20" y="136" width="180" height="10" rx="5" fill="#b7cdec" />
    <rect x="20" y="156" width="240" height="8" rx="4" fill="#c4d5ef" />
  </g>
  <g transform="translate(444,176)">
    <rect width="312" height="200" rx="14" fill="#f7fbff" stroke="#d8deea" />
    <rect x="20" y="20" width="272" height="100" rx="10" fill="#d0e4ff" />
    <rect x="20" y="136" width="180" height="10" rx="5" fill="#b7cdec" />
    <rect x="20" y="156" width="240" height="8" rx="4" fill="#c4d5ef" />
  </g>
  <g transform="translate(792,176)">
    <rect width="312" height="200" rx="14" fill="#f7fbff" stroke="#d8deea" />
    <rect x="20" y="20" width="272" height="100" rx="10" fill="#c6dfff" />
    <rect x="20" y="136" width="180" height="10" rx="5" fill="#b7cdec" />
    <rect x="20" y="156" width="240" height="8" rx="4" fill="#c4d5ef" />
  </g>

  <g transform="translate(96,402)">
    <rect width="312" height="176" rx="14" fill="#f7fbff" stroke="#d8deea" />
    <rect x="20" y="22" width="140" height="10" rx="5" fill="#90b4eb" />
    <rect x="20" y="46" width="250" height="8" rx="4" fill="#c4d5ef" />
    <rect x="20" y="66" width="220" height="8" rx="4" fill="#c4d5ef" />
  </g>
  <g transform="translate(444,402)">
    <rect width="312" height="176" rx="14" fill="#f7fbff" stroke="#d8deea" />
    <rect x="20" y="22" width="140" height="10" rx="5" fill="#90b4eb" />
    <rect x="20" y="46" width="250" height="8" rx="4" fill="#c4d5ef" />
    <rect x="20" y="66" width="220" height="8" rx="4" fill="#c4d5ef" />
  </g>
  <g transform="translate(792,402)">
    <rect width="312" height="176" rx="14" fill="#f7fbff" stroke="#d8deea" />
    <rect x="20" y="22" width="140" height="10" rx="5" fill="#90b4eb" />
    <rect x="20" y="46" width="250" height="8" rx="4" fill="#c4d5ef" />
    <rect x="20" y="66" width="220" height="8" rx="4" fill="#c4d5ef" />
  </g>
</svg>
