<?xml version="1.0" encoding="UTF-8"?>
<svg id="_레이어_1" xmlns="http://www.w3.org/2000/svg" version="1.1" viewBox="0 0 1200 675">
  <!-- Generator: Adobe Illustrator 30.2.1, SVG Export Plug-In . SVG Version: 2.1.1 Build 1)  -->
  <defs>
    <style>
      .st0 {
        fill: #fff;
        stroke-width: 2px;
      }

      .st0, .st1 {
        stroke: #d8deea;
      }

      .st2 {
        fill: #eef4ff;
      }

      .st3 {
        fill: #d8deea;
      }

      .st4, .st5 {
        fill: #c4d5ef;
      }

      .st1 {
        fill: none;
        stroke-width: 3px;
      }

      .st5 {
        opacity: .5;
      }

      .st6 {
        fill: #90b4eb;
      }
    </style>
  </defs>
  <rect class="st2" width="1200" height="675"/>
  <rect class="st0" x="56" y="56" width="1088" height="563" rx="26" ry="26"/>
  <rect class="st3" x="698.69" y="294.54" width="53.74" height="283.46"/>
  <rect class="st4" x="777.98" y="187.19" width="53.74" height="390.81"/>
  <rect class="st2" x="889.33" y="485.17" width="53.74" height="92.83"/>
  <rect class="st6" x="968.62" y="158.67" width="53.74" height="419.33"/>
  <g>
    <polyline class="st1" points="655.58 109.61 655.58 578 1100.39 578"/>
    <path class="st3" d="M641.18,130.11c.7.45,1.63.24,2.07-.46l12.33-19.36,12.33,19.36c.45.7,1.37.91,2.07.46s.9-1.38.46-2.07l-13.59-21.34c-.28-.43-.75-.69-1.27-.69s-.99.26-1.27.69l-13.59,21.34c-.16.25-.23.53-.23.81,0,.5.25.98.69,1.27Z"/>
    <path class="st3" d="M1079.89,592.4c-.45-.7-.24-1.63.46-2.07l19.36-12.33-19.36-12.33c-.7-.45-.91-1.37-.46-2.07.45-.7,1.38-.9,2.07-.46l21.34,13.59c.43.28.69.75.69,1.27s-.26.99-.69,1.27l-21.34,13.59c-.25.16-.53.23-.81.23-.5,0-.98-.25-1.27-.69Z"/>
  </g>
  <path class="st5" d="M351.5,150.12s-14.79,38.5-55.5,81.27-25.03,36.48-17.9,63.15-10.87,29.32-9,42.96,20.41,23.79,10.43,45.09,14.42,27.01,16.48,46.97,26.41,47.05,14.23,74.14-17.88,27.88-17.88,27.88h59.15V150.12"/>
  <path class="st5" d="M351.5,150.12s14.79,38.5,55.5,81.27c40.71,42.77,25.03,36.48,17.9,63.15s10.87,29.32,9,42.96-20.41,23.79-10.43,45.09-14.42,27.01-16.48,46.97c-2.06,19.96-26.41,47.05-14.23,74.14,12.17,27.09,17.88,27.88,17.88,27.88h-59.15V150.12"/>
  <g>
    <polyline class="st1" points="105.58 109.61 105.58 578 550.39 578"/>
    <path class="st3" d="M91.18,130.11c.7.45,1.63.24,2.07-.46l12.33-19.36,12.33,19.36c.45.7,1.37.91,2.07.46.7-.45.9-1.38.46-2.07l-13.59-21.34c-.28-.43-.75-.69-1.27-.69s-.99.26-1.27.69l-13.59,21.34c-.16.25-.23.53-.23.81,0,.5.25.98.69,1.27Z"/>
    <path class="st3" d="M529.89,592.4c-.45-.7-.24-1.63.46-2.07l19.36-12.33-19.36-12.33c-.7-.45-.91-1.37-.46-2.07.45-.7,1.38-.9,2.07-.46l21.34,13.59c.43.28.69.75.69,1.27s-.26.99-.69,1.27l-21.34,13.59c-.25.16-.53.23-.81.23-.5,0-.98-.25-1.27-.69Z"/>
  </g>
  <line class="st1" x1="351.5" y1="106" x2="351.5" y2="578"/>
  <circle class="st6" cx="323.8" cy="326.96" r="10.04"/>
  <circle class="st6" cx="288.41" cy="326.96" r="10.04"/>
  <circle class="st6" cx="296.28" cy="294.54" r="10.04"/>
  <circle class="st6" cx="361.82" cy="484.54" r="10.04"/>
  <circle class="st6" cx="329.58" cy="522.1" r="10.04"/>
  <circle class="st6" cx="293.02" cy="522.1" r="10.04"/>
  <circle class="st6" cx="332.3" cy="381.71" r="10.04"/>
  <circle class="st6" cx="277.52" cy="357.62" r="10.04"/>
  <circle class="st6" cx="303.06" cy="347.58" r="10.04"/>
  <circle class="st6" cx="322.26" cy="459.6" r="10.04"/>
  <circle class="st6" cx="418.86" cy="272.9" r="10.04"/>
  <circle class="st6" cx="306.32" cy="403.59" r="10.04"/>
  <circle class="st6" cx="303.06" cy="434.84" r="10.04"/>
  <circle class="st6" cx="328.6" cy="419.63" r="10.04"/>
  <circle class="st6" cx="278.36" cy="274" r="10.04"/>
  <circle class="st6" cx="380.6" cy="263.96" r="10.04"/>
  <circle class="st6" cx="383.47" cy="326.96" r="10.04"/>
  <circle class="st6" cx="319.53" cy="220.37" r="10.04"/>
  <circle class="st6" cx="363.39" cy="181.99" r="10.04"/>
  <circle class="st6" cx="403.54" cy="230.41" r="10.04"/>
  <circle class="st6" cx="366" cy="522.1" r="10.04"/>
  <circle class="st6" cx="383.47" cy="434.84" r="10.04"/>
  <circle class="st6" cx="342.35" cy="246.21" r="10.04"/>
</svg>