<?xml version="1.0" encoding="UTF-8"?>
<svg id="_레이어_1" xmlns="http://www.w3.org/2000/svg" version="1.1" viewBox="0 0 1200 675">
  <!-- Generator: Adobe Illustrator 30.2.1, SVG Export Plug-In . SVG Version: 2.1.1 Build 1)  -->
  <defs>
    <style>
      .st0 {
        fill: #fff;
        stroke-width: 2px;
      }

      .st0, .st1 {
        stroke: #d8deea;
      }

      .st2 {
        fill: #eef4ff;
      }

      .st3 {
        fill: #c4d5ef;
      }

      .st1 {
        fill: none;
        stroke-width: 3px;
      }

      .st4 {
        fill: #90b4eb;
      }
    </style>
  </defs>
  <rect class="st2" width="1200" height="675"/>
  <rect class="st0" x="56" y="56" width="1088" height="563" rx="26" ry="26"/>
  <polyline class="st1" points="105.58 106 105.58 578 1104 578"/>
  <circle class="st3" cx="514.45" cy="293.89" r="10.04"/>
  <circle class="st3" cx="376.83" cy="235.93" r="10.04"/>
  <circle class="st3" cx="417.91" cy="336.36" r="10.04"/>
  <circle class="st3" cx="187.32" cy="333.87" r="10.04"/>
  <circle class="st3" cx="166.63" cy="291.17" r="10.04"/>
  <circle class="st3" cx="207.72" cy="391.59" r="10.04"/>
  <circle class="st3" cx="447.59" cy="149.65" r="10.04"/>
  <circle class="st3" cx="271.77" cy="301.21" r="10.04"/>
  <circle class="st3" cx="297.64" cy="343.92" r="10.04"/>
  <circle class="st3" cx="411.08" cy="224.97" r="10.04"/>
  <circle class="st3" cx="252.71" cy="454.16" r="10.04"/>
  <circle class="st3" cx="342.58" cy="240.35" r="10.04"/>
  <circle class="st3" cx="366.79" cy="193.32" r="10.04"/>
  <circle class="st3" cx="496.66" cy="198.71" r="10.04"/>
  <circle class="st3" cx="336.9" cy="448.56" r="10.04"/>
  <circle class="st3" cx="279.41" cy="176.57" r="10.04"/>
  <circle class="st3" cx="186.07" cy="240.96" r="10.04"/>
  <circle class="st3" cx="460.59" cy="225.89" r="10.04"/>
  <circle class="st3" cx="356.06" cy="311.25" r="10.04"/>
  <circle class="st3" cx="465.15" cy="349.13" r="10.04"/>
  <circle class="st3" cx="470.64" cy="273.31" r="10.04"/>
  <circle class="st3" cx="223.57" cy="293.89" r="10.04"/>
  <circle class="st3" cx="332.54" cy="364.36" r="10.04"/>
  <circle class="st3" cx="355.45" cy="274.52" r="10.04"/>
  <circle class="st3" cx="166.63" cy="444.12" r="10.04"/>
  <circle class="st3" cx="166.63" cy="208.75" r="10.04"/>
  <circle class="st3" cx="322.49" cy="290.73" r="10.04"/>
  <circle class="st3" cx="297.64" cy="253.58" r="10.04"/>
  <circle class="st3" cx="373.21" cy="371.51" r="10.04"/>
  <circle class="st3" cx="216.31" cy="206.33" r="10.04"/>
  <circle class="st3" cx="233.61" cy="160.34" r="10.04"/>
  <circle class="st3" cx="441.35" cy="275.21" r="10.04"/>
  <circle class="st3" cx="322.49" cy="166.53" r="10.04"/>
  <circle class="st3" cx="274.72" cy="215.17" r="10.04"/>
  <circle class="st3" cx="281.82" cy="409.26" r="10.04"/>
  <circle class="st3" cx="407.87" cy="419.36" r="10.04"/>
  <circle class="st4" cx="863.98" cy="321.52" r="10.04"/>
  <circle class="st4" cx="720.7" cy="303.94" r="10.04"/>
  <circle class="st4" cx="938.56" cy="516.27" r="10.04"/>
  <circle class="st4" cx="1020.69" cy="194.19" r="10.04"/>
  <circle class="st4" cx="782.64" cy="345.37" r="10.04"/>
  <circle class="st4" cx="605.51" cy="503.8" r="10.04"/>
  <circle class="st4" cx="902" cy="479.1" r="10.04"/>
  <circle class="st4" cx="713.27" cy="414.93" r="10.04"/>
  <circle class="st4" cx="737.5" cy="509.71" r="10.04"/>
  <circle class="st4" cx="872.48" cy="376.27" r="10.04"/>
  <circle class="st4" cx="792" cy="431.02" r="10.04"/>
  <circle class="st4" cx="862.44" cy="454.16" r="10.04"/>
  <circle class="st4" cx="747.54" cy="376.75" r="10.04"/>
  <circle class="st4" cx="959.04" cy="267.46" r="10.04"/>
  <circle class="st4" cx="1078.95" cy="386.79" r="10.04"/>
  <circle class="st4" cx="662.66" cy="506.23" r="10.04"/>
  <circle class="st4" cx="765.91" cy="409.09" r="10.04"/>
  <circle class="st4" cx="837.51" cy="523.88" r="10.04"/>
  <circle class="st4" cx="979.32" cy="390.79" r="10.04"/>
  <circle class="st4" cx="1006.52" cy="409.26" r="10.04"/>
  <circle class="st4" cx="846.5" cy="414.2" r="10.04"/>
  <circle class="st4" cx="1048.48" cy="309.2" r="10.04"/>
  <circle class="st4" cx="992" cy="358.51" r="10.04"/>
  <circle class="st4" cx="1021.28" cy="290.73" r="10.04"/>
  <circle class="st4" cx="818.54" cy="268.57" r="10.04"/>
  <circle class="st4" cx="909.1" cy="285.25" r="10.04"/>
  <circle class="st4" cx="937" cy="321.52" r="10.04"/>
  <circle class="st4" cx="1048.48" cy="381.55" r="10.04"/>
  <circle class="st4" cx="1002.04" cy="327.88" r="10.04"/>
  <circle class="st4" cx="903.57" cy="176.55" r="10.04"/>
  <circle class="st4" cx="713.27" cy="457.94" r="10.04"/>
  <circle class="st4" cx="943.72" cy="224.97" r="10.04"/>
  <circle class="st4" cx="999.65" cy="268.57" r="10.04"/>
  <circle class="st4" cx="1062" cy="522.42" r="10.04"/>
  <circle class="st4" cx="923.65" cy="429.4" r="10.04"/>
  <circle class="st4" cx="882.53" cy="240.77" r="10.04"/>
  <circle class="st4" cx="974.42" cy="500.98" r="10.04"/>
  <circle class="st4" cx="772.59" cy="533.49" r="10.04"/>
  <circle class="st4" cx="798.94" cy="486.56" r="10.04"/>
  <circle class="st4" cx="1024.27" cy="464.21" r="10.04"/>
</svg>