<?xml version="1.0" encoding="UTF-8"?>
<svg id="_레이어_1" data-name="레이어_1" xmlns="http://www.w3.org/2000/svg" version="1.1" viewBox="0 0 1200 675">
  <!-- Generator: Adobe Illustrator 30.2.1, SVG Export Plug-In . SVG Version: 2.1.1 Build 1)  -->
  <defs>
    <style>
      .st0 {
        fill: #fff;
        stroke-width: 2px;
      }

      .st0, .st1, .st2 {
        stroke: #d8deea;
      }

      .st3 {
        fill: #eef4ff;
      }

      .st4 {
        fill: #c6dfff;
      }

      .st5 {
        stroke: #c6dfff;
      }

      .st5, .st1, .st6, .st7 {
        fill: none;
      }

      .st5, .st6, .st7 {
        stroke-linecap: round;
        stroke-linejoin: round;
        stroke-width: 10px;
      }

      .st8 {
        fill: #c4d5ef;
      }

      .st1 {
        stroke-width: 3px;
      }

      .st9 {
        fill: #b7cdec;
      }

      .st10 {
        fill: #f6f9ff;
      }

      .st6 {
        stroke: #c4d5ef;
      }

      .st11 {
        fill: #d0e4ff;
      }

      .st2 {
        fill: #f7fbff;
      }

      .st7 {
        stroke: #90b4eb;
      }

      .st12 {
        fill: #dbe9ff;
      }

      .st13 {
        fill: #9fbdea;
      }

      .st14 {
        fill: #90b4eb;
      }
    </style>
  </defs>
  <rect class="st3" width="1200" height="675"/>
  <rect class="st0" x="56" y="56" width="1088" height="563" rx="26" ry="26"/>
  <rect class="st3" x="-1224.71" width="1200" height="675"/>
  <rect class="st0" x="-1168.71" y="56" width="1088" height="563" rx="26" ry="26"/>
  <rect class="st10" x="-1128.71" y="106" width="1008" height="38" rx="10" ry="10"/>
  <path class="st13" d="M-1101.71,120h250c2.76,0,5,2.24,5,5h0c0,2.76-2.24,5-5,5h-250c-2.76,0-5-2.24-5-5h0c0-2.76,2.24-5,5-5Z"/>
  <g>
    <rect class="st2" x="-1128.71" y="176" width="312" height="200" rx="-252.36" ry="-252.36"/>
    <rect class="st12" x="-1108.71" y="196" width="272" height="100" rx="-282.36" ry="-282.36"/>
    <path class="st9" d="M-1103.71,312h170c2.76,0,5,2.24,5,5h0c0,2.76-2.24,5-5,5h-170c-2.76,0-5-2.24-5-5h0c0-2.76,2.24-5,5-5Z"/>
    <path class="st8" d="M-1104.71,332h232c2.21,0,4,1.79,4,4h0c0,2.21-1.79,4-4,4h-232c-2.21,0-4-1.79-4-4h0c0-2.21,1.79-4,4-4Z"/>
  </g>
  <g>
    <rect class="st2" x="-780.71" y="176" width="312" height="200" rx="-78.36" ry="-78.36"/>
    <rect class="st11" x="-760.71" y="196" width="272" height="100" rx="-108.36" ry="-108.36"/>
    <path class="st9" d="M-755.71,312h170c2.76,0,5,2.24,5,5h0c0,2.76-2.24,5-5,5h-170c-2.76,0-5-2.24-5-5h0c0-2.76,2.24-5,5-5Z"/>
    <path class="st8" d="M-756.71,332h232c2.21,0,4,1.79,4,4h0c0,2.21-1.79,4-4,4h-232c-2.21,0-4-1.79-4-4h0c0-2.21,1.79-4,4-4Z"/>
  </g>
  <g>
    <rect class="st2" x="-432.71" y="176" width="312" height="200" rx="14" ry="14"/>
    <rect class="st4" x="-412.71" y="196" width="272" height="100" rx="10" ry="10"/>
    <path class="st9" d="M-407.71,312h170c2.76,0,5,2.24,5,5h0c0,2.76-2.24,5-5,5h-170c-2.76,0-5-2.24-5-5h0c0-2.76,2.24-5,5-5Z"/>
    <path class="st8" d="M-408.71,332h232c2.21,0,4,1.79,4,4h0c0,2.21-1.79,4-4,4h-232c-2.21,0-4-1.79-4-4h0c0-2.21,1.79-4,4-4Z"/>
  </g>
  <g>
    <rect class="st2" x="-1128.71" y="402" width="312" height="176" rx="-252.36" ry="-252.36"/>
    <path class="st14" d="M-1103.71,424h130c2.76,0,5,2.24,5,5h0c0,2.76-2.24,5-5,5h-130c-2.76,0-5-2.24-5-5h0c0-2.76,2.24-5,5-5Z"/>
    <path class="st8" d="M-1104.71,448h242c2.21,0,4,1.79,4,4h0c0,2.21-1.79,4-4,4h-242c-2.21,0-4-1.79-4-4h0c0-2.21,1.79-4,4-4Z"/>
    <path class="st8" d="M-1104.71,468h212c2.21,0,4,1.79,4,4h0c0,2.21-1.79,4-4,4h-212c-2.21,0-4-1.79-4-4h0c0-2.21,1.79-4,4-4Z"/>
  </g>
  <g>
    <rect class="st2" x="-780.71" y="402" width="312" height="176" rx="-78.36" ry="-78.36"/>
    <path class="st14" d="M-755.71,424h130c2.76,0,5,2.24,5,5h0c0,2.76-2.24,5-5,5h-130c-2.76,0-5-2.24-5-5h0c0-2.76,2.24-5,5-5Z"/>
    <path class="st8" d="M-756.71,448h242c2.21,0,4,1.79,4,4h0c0,2.21-1.79,4-4,4h-242c-2.21,0-4-1.79-4-4h0c0-2.21,1.79-4,4-4Z"/>
    <path class="st8" d="M-756.71,468h212c2.21,0,4,1.79,4,4h0c0,2.21-1.79,4-4,4h-212c-2.21,0-4-1.79-4-4h0c0-2.21,1.79-4,4-4Z"/>
  </g>
  <g>
    <rect class="st2" x="-432.71" y="402" width="312" height="176" rx="14" ry="14"/>
    <path class="st14" d="M-407.71,424h130c2.76,0,5,2.24,5,5h0c0,2.76-2.24,5-5,5h-130c-2.76,0-5-2.24-5-5h0c0-2.76,2.24-5,5-5Z"/>
    <path class="st8" d="M-408.71,448h242c2.21,0,4,1.79,4,4h0c0,2.21-1.79,4-4,4h-242c-2.21,0-4-1.79-4-4h0c0-2.21,1.79-4,4-4Z"/>
    <path class="st8" d="M-408.71,468h212c2.21,0,4,1.79,4,4h0c0,2.21-1.79,4-4,4h-212c-2.21,0-4-1.79-4-4h0c0-2.21,1.79-4,4-4Z"/>
  </g>
  <polyline class="st1" points="105.58 106 105.58 578 1104 578"/>
  <line class="st7" x1="168.32" y1="483.74" x2="1062" y2="176"/>
  <path class="st6" d="M168.32,409.6s78.42-173.23,206.73-163.6,204.95,193.82,380.95,178,262.97-295.6,306-299"/>
  <path class="st5" d="M168.32,152.97s272.89,363.56,503.29,365.7,324.55-228.83,390.4-250.22"/>
</svg>