<?xml version="1.0" encoding="UTF-8"?>
<svg id="_레이어_1" xmlns="http://www.w3.org/2000/svg" version="1.1" viewBox="0 0 1200 675">
  <!-- Generator: Adobe Illustrator 30.2.1, SVG Export Plug-In . SVG Version: 2.1.1 Build 1)  -->
  <defs>
    <style>
      .st0, .st1, .st2, .st3, .st4, .st5 {
        stroke: #d8deea;
      }

      .st0, .st6 {
        fill: #eef4ff;
      }

      .st1 {
        fill: #fff;
        stroke-width: 2px;
      }

      .st2 {
        fill: #c4d5ef;
      }

      .st3 {
        fill: #dbe9ff;
      }

      .st4 {
        fill: #f7fbff;
      }

      .st5 {
        fill: #90b4eb;
      }
    </style>
  </defs>
  <rect class="st6" width="1200" height="675"/>
  <rect class="st1" x="56" y="56" width="1088" height="563" rx="26" ry="26"/>
  <g>
    <rect class="st1" x="346.43" y="83.93" width="507.13" height="507.13" rx="5.67" ry="5.67"/>
    <g>
      <circle class="st0" cx="393.52" cy="139.96" r="21.79"/>
      <circle class="st5" cx="393.52" cy="196.4" r="21.79"/>
      <circle class="st2" cx="393.52" cy="252.84" r="21.79"/>
      <circle class="st4" cx="393.52" cy="309.28" r="21.79"/>
      <circle class="st3" cx="452.51" cy="139.96" r="21.79"/>
      <circle class="st4" cx="452.51" cy="196.4" r="21.79"/>
      <circle class="st5" cx="452.51" cy="252.84" r="21.79"/>
      <circle class="st4" cx="452.51" cy="309.28" r="21.79"/>
      <circle class="st3" cx="511.51" cy="139.96" r="21.79"/>
      <circle class="st2" cx="511.51" cy="196.4" r="21.79"/>
      <circle class="st3" cx="511.51" cy="252.84" r="21.79"/>
      <circle class="st0" cx="511.51" cy="309.28" r="21.79"/>
      <circle class="st5" cx="570.5" cy="139.96" r="21.79"/>
      <circle class="st4" cx="570.5" cy="196.4" r="21.79"/>
      <circle class="st4" cx="570.5" cy="252.84" r="21.79"/>
      <circle class="st2" cx="570.5" cy="309.28" r="21.79"/>
      <circle class="st0" cx="393.52" cy="365.72" r="21.79"/>
      <circle class="st5" cx="393.52" cy="422.16" r="21.79"/>
      <circle class="st2" cx="393.52" cy="478.6" r="21.79"/>
      <circle class="st4" cx="393.52" cy="535.04" r="21.79"/>
      <circle class="st3" cx="452.51" cy="365.72" r="21.79"/>
      <circle class="st4" cx="452.51" cy="422.16" r="21.79"/>
      <circle class="st5" cx="452.51" cy="478.6" r="21.79"/>
      <circle class="st4" cx="452.51" cy="535.04" r="21.79"/>
      <circle class="st3" cx="511.51" cy="365.72" r="21.79"/>
      <circle class="st2" cx="511.51" cy="422.16" r="21.79"/>
      <circle class="st3" cx="511.51" cy="478.6" r="21.79"/>
      <circle class="st0" cx="511.51" cy="535.04" r="21.79"/>
      <circle class="st5" cx="570.5" cy="365.72" r="21.79"/>
      <circle class="st4" cx="570.5" cy="422.16" r="21.79"/>
      <circle class="st4" cx="570.5" cy="478.6" r="21.79"/>
      <circle class="st2" cx="570.5" cy="535.04" r="21.79"/>
      <circle class="st0" cx="629.5" cy="139.96" r="21.79"/>
      <circle class="st5" cx="629.5" cy="196.4" r="21.79"/>
      <circle class="st2" cx="629.5" cy="252.84" r="21.79"/>
      <circle class="st4" cx="629.5" cy="309.28" r="21.79"/>
      <circle class="st3" cx="688.49" cy="139.96" r="21.79"/>
      <circle class="st4" cx="688.49" cy="196.4" r="21.79"/>
      <circle class="st5" cx="688.49" cy="252.84" r="21.79"/>
      <circle class="st4" cx="688.49" cy="309.28" r="21.79"/>
      <circle class="st3" cx="747.49" cy="139.96" r="21.79"/>
      <circle class="st2" cx="747.49" cy="196.4" r="21.79"/>
      <circle class="st3" cx="747.49" cy="252.84" r="21.79"/>
      <circle class="st0" cx="747.49" cy="309.28" r="21.79"/>
      <circle class="st5" cx="806.48" cy="139.96" r="21.79"/>
      <circle class="st4" cx="806.48" cy="196.4" r="21.79"/>
      <circle class="st4" cx="806.48" cy="252.84" r="21.79"/>
      <circle class="st2" cx="806.48" cy="309.28" r="21.79"/>
      <circle class="st0" cx="629.5" cy="365.72" r="21.79"/>
      <circle class="st5" cx="629.5" cy="422.16" r="21.79"/>
      <circle class="st2" cx="629.5" cy="478.6" r="21.79"/>
      <circle class="st4" cx="629.5" cy="535.04" r="21.79"/>
      <circle class="st3" cx="688.49" cy="365.72" r="21.79"/>
      <circle class="st4" cx="688.49" cy="422.16" r="21.79"/>
      <circle class="st5" cx="688.49" cy="478.6" r="21.79"/>
      <circle class="st4" cx="688.49" cy="535.04" r="21.79"/>
      <circle class="st3" cx="747.49" cy="365.72" r="21.79"/>
      <circle class="st2" cx="747.49" cy="422.16" r="21.79"/>
      <circle class="st3" cx="747.49" cy="478.6" r="21.79"/>
      <circle class="st0" cx="747.49" cy="535.04" r="21.79"/>
      <circle class="st5" cx="806.48" cy="365.72" r="21.79"/>
      <circle class="st4" cx="806.48" cy="422.16" r="21.79"/>
      <circle class="st4" cx="806.48" cy="478.6" r="21.79"/>
      <circle class="st2" cx="806.48" cy="535.04" r="21.79"/>
    </g>
  </g>
</svg>