<?xml version="1.0" encoding="UTF-8"?>
<svg id="_레이어_1" xmlns="http://www.w3.org/2000/svg" version="1.1" viewBox="0 0 1200 675">
  <!-- Generator: Adobe Illustrator 30.2.1, SVG Export Plug-In . SVG Version: 2.1.1 Build 1)  -->
  <defs>
    <style>
      .st0 {
        fill: #fff;
        stroke-width: 2px;
      }

      .st0, .st1, .st2 {
        stroke: #d8deea;
      }

      .st3 {
        fill: #eef4ff;
      }

      .st4 {
        fill: #d8deea;
      }

      .st5 {
        fill: #c4d5ef;
      }

      .st1 {
        fill: none;
        stroke-width: 3px;
      }

      .st2 {
        fill: #f7fbff;
      }

      .st6 {
        fill: #90b4eb;
      }
    </style>
  </defs>
  <rect class="st3" width="1200" height="675"/>
  <rect class="st0" x="56" y="56" width="1088" height="563" rx="26" ry="26"/>
  <g>
    <rect class="st2" x="100.79" y="101.5" width="199.68" height="472"/>
    <rect class="st2" x="699.84" y="101.5" width="199.68" height="472"/>
    <polyline class="st1" points="100.79 101.5 100.79 573.5 1099.21 573.5"/>
    <line class="st1" x1="300.47" y1="101.5" x2="300.47" y2="573.5"/>
    <line class="st1" x1="699.84" y1="101.5" x2="699.84" y2="573.5"/>
    <line class="st1" x1="899.53" y1="101.5" x2="899.53" y2="573.5"/>
    <line class="st1" x1="1099.21" y1="101.5" x2="1099.21" y2="573.5"/>
    <line class="st1" x1="100.79" y1="101.5" x2="1099.21" y2="101.5"/>
    <line class="st1" x1="100.79" y1="195.9" x2="1099.21" y2="195.9"/>
    <line class="st1" x1="100.79" y1="290.3" x2="1099.21" y2="290.3"/>
    <line class="st1" x1="100.79" y1="384.7" x2="1099.21" y2="384.7"/>
    <line class="st1" x1="100.79" y1="479.1" x2="1099.21" y2="479.1"/>
  </g>
  <rect class="st6" x="922.49" y="120.1" width="154.51" height="55.6" rx="5.67" ry="5.67"/>
  <path class="st5" d="M333.1,143.9h242c2.21,0,4,1.79,4,4h0c0,2.21-1.79,4-4,4h-242c-2.21,0-4-1.79-4-4h0c0-2.21,1.79-4,4-4Z"/>
  <path class="st6" d="M132.42,142.9h130c2.76,0,5,2.24,5,5h0c0,2.76-2.24,5-5,5h-130c-2.76,0-5-2.24-5-5h0c0-2.76,2.24-5,5-5Z"/>
  <path class="st4" d="M734.68,142.9h130c2.76,0,5,2.24,5,5h0c0,2.76-2.24,5-5,5h-130c-2.76,0-5-2.24-5-5h0c0-2.76,2.24-5,5-5Z"/>
  <rect class="st6" x="922.49" y="215.27" width="154.51" height="55.6" rx="5.67" ry="5.67"/>
  <path class="st5" d="M333.1,239.07h242c2.21,0,4,1.79,4,4h0c0,2.21-1.79,4-4,4h-242c-2.21,0-4-1.79-4-4h0c0-2.21,1.79-4,4-4Z"/>
  <path class="st6" d="M132.42,238.07h130c2.76,0,5,2.24,5,5h0c0,2.76-2.24,5-5,5h-130c-2.76,0-5-2.24-5-5h0c0-2.76,2.24-5,5-5Z"/>
  <path class="st4" d="M734.68,238.07h130c2.76,0,5,2.24,5,5h0c0,2.76-2.24,5-5,5h-130c-2.76,0-5-2.24-5-5h0c0-2.76,2.24-5,5-5Z"/>
  <rect class="st6" x="922.49" y="310.44" width="154.51" height="55.6" rx="5.67" ry="5.67"/>
  <path class="st5" d="M333.1,334.24h242c2.21,0,4,1.79,4,4h0c0,2.21-1.79,4-4,4h-242c-2.21,0-4-1.79-4-4h0c0-2.21,1.79-4,4-4Z"/>
  <path class="st6" d="M132.42,333.24h130c2.76,0,5,2.24,5,5h0c0,2.76-2.24,5-5,5h-130c-2.76,0-5-2.24-5-5h0c0-2.76,2.24-5,5-5Z"/>
  <path class="st4" d="M734.68,333.24h130c2.76,0,5,2.24,5,5h0c0,2.76-2.24,5-5,5h-130c-2.76,0-5-2.24-5-5h0c0-2.76,2.24-5,5-5Z"/>
  <rect class="st6" x="922.49" y="405.6" width="154.51" height="55.6" rx="5.67" ry="5.67"/>
  <path class="st5" d="M333.1,429.4h242c2.21,0,4,1.79,4,4h0c0,2.21-1.79,4-4,4h-242c-2.21,0-4-1.79-4-4h0c0-2.21,1.79-4,4-4Z"/>
  <path class="st6" d="M132.42,428.4h130c2.76,0,5,2.24,5,5h0c0,2.76-2.24,5-5,5h-130c-2.76,0-5-2.24-5-5h0c0-2.76,2.24-5,5-5Z"/>
  <path class="st4" d="M734.68,428.4h130c2.76,0,5,2.24,5,5h0c0,2.76-2.24,5-5,5h-130c-2.76,0-5-2.24-5-5h0c0-2.76,2.24-5,5-5Z"/>
  <rect class="st6" x="922.49" y="499.77" width="154.51" height="55.6" rx="5.67" ry="5.67"/>
  <path class="st5" d="M333.1,524.57h242c2.21,0,4,1.79,4,4h0c0,2.21-1.79,4-4,4h-242c-2.21,0-4-1.79-4-4h0c0-2.21,1.79-4,4-4Z"/>
  <path class="st6" d="M132.42,522.57h130c2.76,0,5,2.24,5,5h0c0,2.76-2.24,5-5,5h-130c-2.76,0-5-2.24-5-5h0c0-2.76,2.24-5,5-5Z"/>
  <path class="st4" d="M734.68,522.57h130c2.76,0,5,2.24,5,5h0c0,2.76-2.24,5-5,5h-130c-2.76,0-5-2.24-5-5h0c0-2.76,2.24-5,5-5Z"/>
</svg>